<?xml version="1.0" encoding="UTF-8" standalone="no"?>
<svg
   xmlns:dc="http://purl.org/dc/elements/1.1/"
   xmlns:cc="http://creativecommons.org/ns#"
   xmlns:rdf="http://www.w3.org/1999/02/22-rdf-syntax-ns#"
   xmlns:svg="http://www.w3.org/2000/svg"
   xmlns="http://www.w3.org/2000/svg"
   xmlns:sodipodi="http://sodipodi.sourceforge.net/DTD/sodipodi-0.dtd"
   xmlns:inkscape="http://www.inkscape.org/namespaces/inkscape"
   width="710.39496mm"
   height="73.71418mm"
   viewBox="0 0 710.39496 73.71418"
   version="1.1"
   id="svg27098"
   inkscape:version="1.0 (4035a4fb49, 2020-05-01)"
   sodipodi:docname="brand.svg">
  <defs
     id="defs27092" />
  <sodipodi:namedview
     id="base"
     pagecolor="#ffffff"
     bordercolor="#666666"
     borderopacity="1.0"
     inkscape:pageopacity="0.0"
     inkscape:pageshadow="2"
     inkscape:zoom="0.35"
     inkscape:cx="1746.4283"
     inkscape:cy="374.25279"
     inkscape:document-units="mm"
     inkscape:current-layer="layer1"
     inkscape:document-rotation="0"
     showgrid="false"
     fit-margin-top="1.3"
     fit-margin-left="0.75"
     fit-margin-right="0.75"
     fit-margin-bottom="1.3"
     inkscape:window-width="1920"
     inkscape:window-height="1027"
     inkscape:window-x="-8"
     inkscape:window-y="-8"
     inkscape:window-maximized="1" />
  <metadata
     id="metadata27095">
    <rdf:RDF>
      <cc:Work
         rdf:about="">
        <dc:format>image/svg+xml</dc:format>
        <dc:type
           rdf:resource="http://purl.org/dc/dcmitype/StillImage" />
        <dc:title></dc:title>
      </cc:Work>
    </rdf:RDF>
  </metadata>
  <g
     inkscape:label="Layer 1"
     inkscape:groupmode="layer"
     id="layer1"
     transform="translate(434.87805,373.7379)">
    <g
       id="g1021">
      <rect
         y="-372.4379"
         x="-434.12805"
         height="71.114182"
         width="708.89496"
         id="rect180"
         style="opacity:0;fill:#ffffff;fill-rule:evenodd;stroke-width:0.534699" />
      <path
         d="m -400.93331,-372.39845 c -9.64384,0 -17.71461,3.27179 -23.87141,9.7441 -6.18903,6.47647 -9.24388,15.45516 -9.24388,26.6485 0,5.99075 1.31823,11.70293 3.93774,17.07441 2.63974,5.41295 6.56257,9.73311 11.68715,12.8633 5.13448,3.13627 10.98724,4.70307 17.44544,4.70307 5.97108,0 11.58355,-1.41203 16.75195,-4.21886 l 0.002,-0.002 h 0.004 c 5.20956,-2.86065 9.26711,-7.10005 12.09177,-12.59975 2.82032,-5.49126 4.22041,-11.70924 4.22041,-18.58387 0,-6.77547 -1.33368,-12.89507 -4.02714,-18.29294 l -0.002,-0.004 c -2.67057,-5.44121 -6.61381,-9.73252 -11.74605,-12.77337 -5.12873,-3.03874 -10.91475,-4.55838 -17.25011,-4.55838 z m 456.283258,0 c -9.645412,0 -17.717849,3.27176 -23.875021,9.74617 -6.187837,6.47632 -9.240282,15.45423 -9.240282,26.64643 0,5.99075 1.316117,11.70293 3.935677,17.07441 2.639748,5.41295 6.562567,9.73311 11.687149,12.8633 5.134478,3.13627 10.98931,4.70307 17.447524,4.70307 5.971064,0 11.581527,-1.41203 16.749871,-4.21886 l 0.0041,-0.002 h 0.0016 c 5.209619,-2.86065 9.269174,-7.10005 12.093839,-12.59975 2.820326,-5.49126 4.218861,-11.70924 4.218861,-18.58387 0,-6.77547 -1.333685,-12.89507 -4.027144,-18.29294 l -0.0021,-0.004 c -2.670572,-5.44121 -6.613763,-9.73252 -11.746072,-12.77337 -5.128656,-3.03874 -10.91266,-4.55838 -17.248028,-4.55838 z m -396.058508,0.045 c -4.6139,0 -8.85503,0.77738 -12.68553,2.35334 -3.85846,1.58745 -6.8908,3.9814 -8.95346,7.14066 -8.2e-4,10e-4 -10e-4,0.003 -0.002,0.004 -5e-4,7.7e-4 -10e-4,0.001 -0.002,0.002 -2.03224,3.08557 -3.07578,6.48779 -3.07578,10.08208 0,3.26713 0.84521,6.29839 2.51923,8.97826 l 0.004,0.0103 0.006,0.008 c 1.72057,2.6684 4.29438,4.86423 7.61917,6.5996 10e-4,7.6e-4 0.004,10e-4 0.006,0.002 8.5e-4,4.4e-4 10e-4,0.002 0.002,0.002 2.67295,1.41141 6.97445,2.77834 13.09946,4.25762 h 0.004 l 0.002,0.002 c 6.06022,1.43377 10.01939,2.52133 11.59567,3.13314 l 0.006,0.002 0.006,0.002 c 2.61445,0.99029 4.36051,2.18666 5.33611,3.4494 l 0.004,0.006 0.006,0.006 c 1.01078,1.28316 1.50016,2.72046 1.50016,4.51187 0,1.74338 -0.51681,3.30203 -1.62522,4.82607 v 0.002 l -0.002,0.002 c -1.03694,1.43529 -2.67423,2.6355 -5.04724,3.55275 -2.36388,0.91375 -5.13558,1.38648 -8.33592,1.38648 -3.59797,0 -6.78222,-0.61343 -9.59373,-1.81642 -0.001,-5.5e-4 -0.003,-0.001 -0.004,-0.002 -2.82017,-1.23761 -4.80197,-2.78812 -6.06216,-4.61316 -1.25718,-1.89462 -2.10355,-4.37788 -2.47478,-7.50548 l -0.16227,-1.36943 -10.97245,0.95499 0.0372,1.33996 c 0.12681,4.64072 1.41145,8.88058 3.84163,12.60544 l 0.004,0.006 0.004,0.006 c 2.46811,3.70197 5.88746,6.50272 10.14615,8.33799 l 0.002,0.002 h 0.002 c 4.29557,1.83745 9.51194,2.72283 15.63884,2.72283 4.8967,0 9.35172,-0.88899 13.31805,-2.68975 l 0.004,-0.002 h 0.002 c 3.99541,-1.83115 7.13753,-4.42592 9.31054,-7.75199 l 0.002,-0.004 0.002,-0.002 c 2.14874,-3.32079 3.25355,-6.92852 3.25355,-10.70736 0,-3.77976 -1.00163,-7.20928 -2.99775,-10.14408 l -0.002,-0.002 c -2.01389,-2.99019 -5.09168,-5.39085 -9.11727,-7.23831 l -0.002,-0.002 -0.004,-0.002 c -2.87064,-1.29916 -7.77834,-2.67501 -14.94895,-4.27157 h 0.006 c -7.03202,-1.60201 -11.40983,-3.35687 -12.54342,-4.38475 l -0.004,-0.004 -0.006,-0.006 c -1.44299,-1.28547 -2.09548,-2.75605 -2.09548,-4.77955 0,-2.30799 0.92361,-4.14039 3.07423,-5.85338 l 0.002,-0.002 c 2.04517,-1.63401 5.59202,-2.61122 10.71459,-2.61122 4.88793,0 8.37261,1.03193 10.60762,2.86909 l 0.004,0.002 0.002,0.002 c 2.29675,1.86617 3.66566,4.59039 4.08813,8.48837 l 0.14831,1.36891 11.13885,-0.83612 -0.0527,-1.37098 c -0.15956,-4.09791 -1.32514,-7.83835 -3.48454,-11.11146 -2.17696,-3.2998 -5.32164,-5.79733 -9.29865,-7.44709 l -0.004,-0.002 c -3.93786,-1.67508 -8.45202,-2.49391 -13.50977,-2.49391 z m 27.06243,1.12292 v 10.62313 h 21.80642 v 58.11739 h 1.42213 10.18129 v -58.11739 h 21.89686 v -10.62313 z m 56.2069,0 v 68.74052 h 1.42162 50.81292 v -10.62106 h -40.63111 v -19.58433 h 36.61327 v -10.5761 h -36.61327 v -17.3359 h 39.0958 v -10.62313 z m 56.02346,0 v 68.74052 h 1.42368 9.82059 v -48.52934 l 32.57992,48.52934 h 11.16625 v -68.74052 h -11.24428 v 48.48852 l -32.57992,-48.48852 z m 56.47665,0 v 10.62313 h 21.80642 v 58.11739 h 1.42213 10.1813 v -58.11739 h 21.896866 v -10.62313 z m 67.759701,0 -26.515691,68.74052 h 2.07428 10.297051 l 7.267257,-19.95693 h 25.703345 l 7.718372,19.95693 h 13.078275 l -28.257712,-68.74052 z m 25.872837,0 v 10.62313 h 21.804868 v 58.11739 h 1.421606 10.181801 V -360.6074 H 3.9980548 v -10.62313 z m 57.5138018,0 v 68.74052 h 1.42367 10.1818012 v -68.74052 z m 85.0077132,0 v 68.74052 h 1.424199 9.820088 v -48.52934 l 32.57992,48.52934 h 11.16624 v -68.74052 h -11.24427 v 48.48852 l -32.57992,-48.48852 z m 61.623127,0 v 68.74052 h 1.42367 50.81293 v -10.62106 h -40.63111 v -19.58433 h 36.61326 v -10.5761 h -36.61326 v -17.3359 h 39.09579 v -10.62313 z m 55.84568,0 v 68.74052 h 1.4237 9.86554 v -48.93758 l 16.69923,48.93758 h 9.92963 l 16.79691,-48.16812 v 48.16812 h 11.28871 v -68.74052 h -14.21825 l -16.17782,46.80697 -0.002,0.002 c -0.97452,2.83753 -1.4944,4.46181 -2.15646,6.46679 -0.57489,-1.78452 -0.99351,-3.1353 -1.8278,-5.64462 v -0.002 l -15.99231,-47.62914 z m -609.57209,9.18395 c 4.123,0 7.75688,1.03167 11.02155,3.10523 l 0.006,0.004 0.006,0.004 c 3.28243,2.03908 5.73997,4.88955 7.44348,8.67752 l 0.002,0.006 0.004,0.006 c 1.73437,3.76506 2.6231,8.22819 2.6231,13.42967 0,8.24121 -2.05276,14.38003 -6.03116,18.67587 l -0.002,0.002 h -0.002 c -3.99518,4.34448 -8.94572,6.46266 -15.20476,6.46266 -6.1369,0 -11.06797,-2.09071 -15.12724,-6.38669 -3.98992,-4.28432 -6.02134,-10.12898 -6.02134,-17.81028 0,-9.70558 2.18542,-16.34131 6.23631,-20.18379 4.24686,-4.02971 9.17228,-5.99188 15.04663,-5.99188 z m 456.283251,0 c 4.123002,0 7.754805,1.03167 11.019498,3.10523 l 0.0057,0.004 0.0062,0.004 c 3.282368,2.03908 5.739368,4.88954 7.442941,8.67752 l 0.0042,0.006 0.0021,0.006 c 1.73437,3.76506 2.623079,8.22819 2.623079,13.42967 0,8.24121 -2.052743,14.38003 -6.031151,18.67587 l -0.0021,0.002 h -0.0021 c -3.995182,4.34448 -8.946224,6.46266 -15.205287,6.46266 -6.132909,0 -11.061117,-2.08806 -15.118953,-6.37842 l -0.0021,-0.002 c -3.993039,-4.28479 -6.027526,-10.1321 -6.027526,-17.81648 0,-9.70558 2.18747,-16.34131 6.238373,-20.18379 4.246853,-4.02971 9.172813,-5.99188 15.047145,-5.99188 z m -126.843921,4.23231 c 0.927867,2.82653 1.727597,5.423 3.124861,9.09969 l 6.177915,16.31993 h -18.322395 l 6.546903,-17.40772 0.0021,-0.004 c 0.978006,-2.65398 1.768449,-5.32701 2.470653,-8.00776 z"
         style="color:#000000;font-style:normal;font-variant:normal;font-weight:normal;font-stretch:normal;font-size:106.514px;line-height:0.95;font-family:Arial;-inkscape-font-specification:Arial;font-variant-ligatures:normal;font-variant-position:normal;font-variant-caps:normal;font-variant-numeric:normal;font-variant-alternates:normal;font-variant-east-asian:normal;font-feature-settings:normal;font-variation-settings:normal;text-indent:0;text-align:start;text-decoration:none;text-decoration-line:none;text-decoration-style:solid;text-decoration-color:#000000;letter-spacing:-6.29319px;word-spacing:0px;text-transform:none;writing-mode:lr-tb;direction:ltr;text-orientation:mixed;dominant-baseline:auto;baseline-shift:baseline;text-anchor:start;white-space:normal;shape-padding:0;shape-margin:0;inline-size:0;clip-rule:nonzero;display:inline;overflow:visible;visibility:visible;isolation:auto;mix-blend-mode:normal;color-interpolation:sRGB;color-interpolation-filters:linearRGB;solid-color:#000000;solid-opacity:1;vector-effect:none;fill:#1a1a1a;fill-opacity:1;fill-rule:nonzero;stroke:none;stroke-width:2.84641;stroke-linecap:butt;stroke-linejoin:miter;stroke-miterlimit:4;stroke-dasharray:none;stroke-dashoffset:0;stroke-opacity:1;color-rendering:auto;image-rendering:auto;shape-rendering:auto;text-rendering:auto;enable-background:accumulate;stop-color:#000000"
         id="path77" />
    </g>
  </g>
</svg>
